<svg aria-hidden="true" style="position: absolute; width: 0; height: 0; overflow: hidden;" version="1.1" xmlns="http://www.w3.org/2000/svg" xmlns:xlink="http://www.w3.org/1999/xlink">
<symbol id="icon-dropdown" viewBox="0 0 32 32">
<path fill="#fff" d="M29.755 10.3l-1.919-1.899c-0.279-0.276-0.724-0.283-0.993-0.016l-10.785 10.273-11.003-10.705c-0.273-0.27-0.723-0.264-1.003 0.015l-1.937 1.918c-0.282 0.28-0.289 0.724-0.016 0.994l13.468 13.104c0.272 0.27 0.721 0.264 1.003-0.016l1.937-1.918c0.044-0.044 0.081-0.092 0.112-0.143l11.151-10.623c0.27-0.267 0.264-0.709-0.015-0.984z"></path>
</symbol>
<symbol id="icon-habr" viewBox="0 0 70 32">
<path fill="#fff" style="fill: var(--color1, #fff)" d="M17.387 3.84h-4.48l-4.16 6.507-4.053-6.507h-4.693l6.187 9.6-6.187 9.6h4.587l4.053-6.72 4.16 6.72h4.587l-6.187-9.6 6.187-9.6zM25.28 8.96c-3.627 0-5.653 2.133-6.080 4.48h3.627c0.213-0.747 0.853-1.493 2.24-1.493s2.24 0.64 2.24 1.92v0.64h-2.987c-3.52 0-5.653 1.6-5.653 4.48s2.133 4.373 4.8 4.373 3.2-0.64 4.053-1.813v1.493h3.627v-9.067c0-3.307-2.347-5.12-5.867-5.12zM27.413 17.92c0 1.6-1.28 2.453-2.773 2.453s-1.92-0.533-1.92-1.493 0.853-1.6 2.027-1.6h2.667v0.64zM42.027 9.493c-1.92 0-3.52 0.747-4.48 2.133 0.213-2.56 1.28-3.84 3.947-4.267l4.907-0.747v-3.413l-5.333 0.96c-5.44 0.853-7.147 4.48-7.147 10.56s2.667 8.64 7.253 8.64 6.827-3.2 6.827-7.040-2.347-6.827-5.973-6.827zM41.067 20.16c-2.027 0-3.2-1.6-3.2-3.84s1.173-3.627 3.2-3.627 2.987 1.6 2.987 3.627-1.067 3.733-3.093 3.733zM58.453 8.96c-2.027 0-3.307 0.853-4.053 1.92v-1.707h-3.733v19.2h3.947v-6.613c0.747 0.96 2.027 1.6 3.733 1.6 3.413 0 6.080-2.667 6.080-7.253s-2.667-7.253-5.973-7.253zM57.493 20.053c-1.813 0-2.987-1.493-2.987-3.84 0-2.453 1.173-3.947 2.987-3.947s2.987 1.493 2.987 3.84-1.173 3.84-2.987 3.84z"></path>
<path fill="#000" style="fill: var(--color2, #000)" d="M60.48 0.853c5.333 0 6.72 3.947 6.72 5.013-3.2-2.133-6.933 1.6-6.933 1.6s0.213-4.48 0.213-6.613z"></path>
<path fill="#b8d5ff" style="fill: var(--color3, #b8d5ff)" d="M69.333 6.507c-0.32 1.173-1.493 1.813-2.667 1.493s-1.813-1.493-1.493-2.667 1.493-1.813 2.667-1.493c1.173 0.32 1.813 1.493 1.493 2.667z"></path>
<path fill="#e84256" style="fill: var(--color4, #e84256)" d="M58.987 1.173c1.173-0.853 2.987-0.32 3.52 0.96l4.373 11.2c0.64 1.707-0.96 3.307-2.667 2.773l-14.187-4.053c-1.813-0.533-2.24-2.773-0.747-3.733l9.813-7.147z"></path>
<path fill="#d1e4ff" style="fill: var(--color5, #d1e4ff)" d="M66.453 12.373l-16.32-4.693-0.853 0.64c-1.493 1.067-0.96 3.307 0.747 3.733l14.187 4.053c1.813 0.533 3.307-1.173 2.667-2.773l-0.427-0.96z"></path>
</symbol>
<symbol id="icon-search" viewBox="0 0 32 32">
<path fill="" d="M27.414 24.586l-5.077-5.077c1.049-1.581 1.663-3.474 1.663-5.509 0-5.514-4.486-10-10-10s-10 4.486-10 10 4.486 10 10 10c2.035 0 3.928-0.614 5.509-1.663l5.077 5.077c0.78 0.781 2.048 0.781 2.828 0 0.781-0.781 0.781-2.047 0-2.828zM7 14c0-3.86 3.14-7 7-7s7 3.14 7 7-3.14 7-7 7-7-3.14-7-7z"></path>
</symbol>
<symbol id="icon-settings" viewBox="0 0 32 32">
<path fill="" d="M25.6 0h-19.2c-3.534 0-6.4 2.866-6.4 6.4v19.2c0 3.534 2.865 6.4 6.4 6.4h19.2c3.535 0 6.4-2.866 6.4-6.4v-19.2c0-3.534-2.865-6.4-6.4-6.4zM28.8 24c0 2.651-2.149 4.8-4.8 4.8h-16c-2.651 0-4.8-2.149-4.8-4.8v-16c0-2.651 2.149-4.8 4.8-4.8h16c2.651 0 4.8 2.149 4.8 4.8v16zM16 9.6c-7.681 0.032-9.6 6.4-9.6 6.4s1.919 6.368 9.6 6.4c7.664 0.032 9.6-6.4 9.6-6.4s-1.936-6.432-9.6-6.4zM16 20.8c-2.651 0-4.8-2.149-4.8-4.8s2.149-4.8 4.8-4.8c2.651 0 4.8 2.149 4.8 4.8s-2.149 4.8-4.8 4.8zM16 14.4c-0.884 0-1.6 0.716-1.6 1.6s0.716 1.6 1.6 1.6c0.884 0 1.6-0.716 1.6-1.6s-0.716-1.6-1.6-1.6z"></path>
</symbol>
</svg>