<svg aria-hidden="true" style="position: absolute; width: 0; height: 0; overflow: hidden;" version="1.1" xmlns="http://www.w3.org/2000/svg" xmlns:xlink="http://www.w3.org/1999/xlink">
<symbol id="icon-dropdown" viewBox="0 0 32 32">
<path fill="" d="M29.755 10.3l-1.919-1.899c-0.279-0.276-0.724-0.283-0.993-0.016l-10.785 10.273-11.003-10.705c-0.273-0.27-0.723-0.264-1.003 0.015l-1.937 1.918c-0.282 0.28-0.289 0.724-0.016 0.994l13.468 13.104c0.272 0.27 0.721 0.264 1.003-0.016l1.937-1.918c0.044-0.044 0.081-0.092 0.112-0.143l11.151-10.623c0.27-0.267 0.264-0.709-0.015-0.984z"></path>
</symbol>
<symbol id="icon-habr" viewBox="0 0 70 32">
<path fill="#fff" style="fill: var(--color1, #fff)" d="M17.387 3.84h-4.48l-4.16 6.507-4.053-6.507h-4.693l6.187 9.6-6.187 9.6h4.587l4.053-6.72 4.16 6.72h4.587l-6.187-9.6 6.187-9.6zM25.28 8.96c-3.627 0-5.653 2.133-6.080 4.48h3.627c0.213-0.747 0.853-1.493 2.24-1.493s2.24 0.64 2.24 1.92v0.64h-2.987c-3.52 0-5.653 1.6-5.653 4.48s2.133 4.373 4.8 4.373 3.2-0.64 4.053-1.813v1.493h3.627v-9.067c0-3.307-2.347-5.12-5.867-5.12zM27.413 17.92c0 1.6-1.28 2.453-2.773 2.453s-1.92-0.533-1.92-1.493 0.853-1.6 2.027-1.6h2.667v0.64zM42.027 9.493c-1.92 0-3.52 0.747-4.48 2.133 0.213-2.56 1.28-3.84 3.947-4.267l4.907-0.747v-3.413l-5.333 0.96c-5.44 0.853-7.147 4.48-7.147 10.56s2.667 8.64 7.253 8.64 6.827-3.2 6.827-7.040-2.347-6.827-5.973-6.827zM41.067 20.16c-2.027 0-3.2-1.6-3.2-3.84s1.173-3.627 3.2-3.627 2.987 1.6 2.987 3.627-1.067 3.733-3.093 3.733zM58.453 8.96c-2.027 0-3.307 0.853-4.053 1.92v-1.707h-3.733v19.2h3.947v-6.613c0.747 0.96 2.027 1.6 3.733 1.6 3.413 0 6.080-2.667 6.080-7.253s-2.667-7.253-5.973-7.253zM57.493 20.053c-1.813 0-2.987-1.493-2.987-3.84 0-2.453 1.173-3.947 2.987-3.947s2.987 1.493 2.987 3.84-1.173 3.84-2.987 3.84z"></path>
<path fill="#000" style="fill: var(--color2, #000)" d="M60.48 0.853c5.333 0 6.72 3.947 6.72 5.013-3.2-2.133-6.933 1.6-6.933 1.6s0.213-4.48 0.213-6.613z"></path>
<path fill="#b8d5ff" style="fill: var(--color3, #b8d5ff)" d="M69.333 6.507c-0.32 1.173-1.493 1.813-2.667 1.493s-1.813-1.493-1.493-2.667 1.493-1.813 2.667-1.493c1.173 0.32 1.813 1.493 1.493 2.667z"></path>
<path fill="#e84256" style="fill: var(--color4, #e84256)" d="M58.987 1.173c1.173-0.853 2.987-0.32 3.52 0.96l4.373 11.2c0.64 1.707-0.96 3.307-2.667 2.773l-14.187-4.053c-1.813-0.533-2.24-2.773-0.747-3.733l9.813-7.147z"></path>
<path fill="#d1e4ff" style="fill: var(--color5, #d1e4ff)" d="M66.453 12.373l-16.32-4.693-0.853 0.64c-1.493 1.067-0.96 3.307 0.747 3.733l14.187 4.053c1.813 0.533 3.307-1.173 2.667-2.773l-0.427-0.96z"></path>
</symbol>
<symbol id="icon-search" viewBox="0 0 32 32">
<path fill="" d="M27.414 24.586l-5.077-5.077c1.049-1.581 1.663-3.474 1.663-5.509 0-5.514-4.486-10-10-10s-10 4.486-10 10 4.486 10 10 10c2.035 0 3.928-0.614 5.509-1.663l5.077 5.077c0.78 0.781 2.048 0.781 2.828 0 0.781-0.781 0.781-2.047 0-2.828zM7 14c0-3.86 3.14-7 7-7s7 3.14 7 7-3.14 7-7 7-7-3.14-7-7z"></path>
</symbol>
<symbol id="icon-settings" viewBox="0 0 32 32">
<path fill="" d="M25.6 0h-19.2c-3.534 0-6.4 2.866-6.4 6.4v19.2c0 3.534 2.865 6.4 6.4 6.4h19.2c3.535 0 6.4-2.866 6.4-6.4v-19.2c0-3.534-2.865-6.4-6.4-6.4zM28.8 24c0 2.651-2.149 4.8-4.8 4.8h-16c-2.651 0-4.8-2.149-4.8-4.8v-16c0-2.651 2.149-4.8 4.8-4.8h16c2.651 0 4.8 2.149 4.8 4.8v16zM16 9.6c-7.681 0.032-9.6 6.4-9.6 6.4s1.919 6.368 9.6 6.4c7.664 0.032 9.6-6.4 9.6-6.4s-1.936-6.432-9.6-6.4zM16 20.8c-2.651 0-4.8-2.149-4.8-4.8s2.149-4.8 4.8-4.8c2.651 0 4.8 2.149 4.8 4.8s-2.149 4.8-4.8 4.8zM16 14.4c-0.884 0-1.6 0.716-1.6 1.6s0.716 1.6 1.6 1.6c0.884 0 1.6-0.716 1.6-1.6s-0.716-1.6-1.6-1.6z"></path>
</symbol>
<symbol id="icon-facebook" viewBox="0 0 32 32">
<path fill="#1877f2" style="fill: var(--color11, #1877f2)" d="M0 0h32v32h-32v-32z"></path>
<path fill="#fff" style="fill: var(--color2, #fff)" d="M22.225 20.625l0.712-4.625h-4.438v-3c0-1.262 0.619-2.5 2.606-2.5h2.019v-3.938s-1.831-0.313-3.581-0.313c-3.656 0-6.044 2.213-6.044 6.225v3.525h-4.063v4.625h4.063v11.375h5v-11.375h3.725z"></path>
</symbol>
<symbol id="icon-twitter" viewBox="0 0 32 32">
<path fill="#41464a" style="fill: var(--color1, #41464a)" d="M30.375 24.537c0 3.211-2.627 5.838-5.838 5.838h-17.075c-3.211 0-5.838-2.627-5.838-5.838v-17.075c0-3.211 2.627-5.838 5.838-5.838h17.075c3.211 0 5.838 2.627 5.838 5.838v17.075z"></path>
<path fill="#f0f0f1" style="fill: var(--color2, #f0f0f1)" d="M18.152 14.566l6.916-8.619h-2.003l-5.914 7.371-5.914-7.371h-6.603l9.216 11.486-6.916 8.62h2.003l5.914-7.372 5.915 7.372h6.603l-9.216-11.487zM7.889 7.51h2.597l13.625 16.981h-2.597l-13.625-16.981z"></path>
</symbol>
<symbol id="icon-vk" viewBox="0 0 32 32">
<path fill="#4489c8" style="fill: var(--color9, #4489c8)" d="M5.6 0h20.8c3.093 0 5.6 2.507 5.6 5.6v20.8c0 3.093-2.507 5.6-5.6 5.6h-20.8c-3.093 0-5.6-2.507-5.6-5.6v-20.8c0-3.093 2.507-5.6 5.6-5.6z"></path>
<path fill="#fff" style="fill: var(--color2, #fff)" d="M4.81 9.885h3.84c0 0 0 0 0.001 0 0.168 0 0.311 0.105 0.368 0.252l0.001 0.003c0.425 1.095 2.19 5.38 3.805 5.73 1.2 0 0.775-5.7-0.75-5.7-0.4 0 0.71-0.71 0.785-0.74 0.649-0.185 1.395-0.291 2.165-0.291s1.516 0.106 2.223 0.305l-0.058-0.014c0.765 0.32 0.895 1.215 0.915 1.975s-0.85 4 0.295 4.35c1.5 0.46 3.43-4.245 3.88-5.4 0.059-0.148 0.201-0.25 0.367-0.25 0.001 0 0.002 0 0.003 0h4.275c0 0 0.001 0 0.001 0 0.221 0 0.4 0.179 0.4 0.4 0 0.056-0.012 0.109-0.032 0.158l0.001-0.003c-0.981 2.22-2.035 4.111-3.239 5.892l0.084-0.132c-0.088 0.126-0.14 0.282-0.14 0.451 0 0.213 0.084 0.407 0.22 0.549l-0-0c1.28 1.37 4.78 5.25 2.78 5.25h-4.315c-0.001 0-0.001 0-0.002 0-0.234 0-0.444-0.102-0.587-0.264l-0.001-0.001c-0.67-0.74-2.62-2.8-3.5-2.635-0.73 0.135-0.8 1.375-0.765 2.185 0.001 0.013 0.001 0.027 0.001 0.042 0 0.421-0.325 0.766-0.738 0.798l-0.003 0c-0.765 0.045-1.81 0.065-1.905 0.060-3.050-0.195-4.855-2.23-6.58-4.5-1.724-2.274-3.14-4.906-4.116-7.742l-0.059-0.198c-0.013-0.037-0.020-0.080-0.020-0.125 0-0.222 0.178-0.402 0.399-0.405h0z"></path>
</symbol>
<symbol id="icon-telegram" viewBox="0 0 32 32">
<path fill="#37aee2" style="fill: var(--color5, #37aee2)" d="M0 0h32v32h-32v-32z"></path>
<path fill="#c8daea" style="fill: var(--color6, #c8daea)" d="M12.438 25.25c-0.688 0-0.625-0.25-0.813-0.875l-2-6.563 15.313-9z"></path>
<path fill="#a9c9dd" style="fill: var(--color7, #a9c9dd)" d="M12.438 25.25c0.438 0 0.688-0.25 1-0.5l2.813-2.688-3.5-2.125z"></path>
<path fill="#f6fbfe" style="fill: var(--color8, #f6fbfe)" d="M12.75 19.938l8.438 6.188c0.875 0.563 1.625 0.25 1.875-0.875l3.438-16.125c0.313-1.375-0.563-2-1.5-1.563l-20.063 7.75c-1.313 0.5-1.313 1.313-0.25 1.625l5.188 1.625 11.875-7.563c0.563-0.313 1.063-0.188 0.688 0.25z"></path>
</symbol>
<symbol id="icon-youtube" viewBox="0 0 32 32">
<path fill="#dd2925" style="fill: var(--color3, #dd2925)" d="M6.582 3.118h18.835c1.913 0 3.464 1.551 3.464 3.464v18.835c0 1.913-1.551 3.464-3.464 3.464h-18.835c-1.913 0-3.464-1.551-3.464-3.464v-18.835c0-1.913 1.551-3.464 3.464-3.464z"></path>
<path fill="#fefefe" style="fill: var(--color4, #fefefe)" d="M23.625 13.356s-0.081-2.743-3.041-2.891c0 0-4.698-0.276-9.333 0.023 0 0-2.713 0.055-2.883 2.676 0 0-0.223 2.978-0.036 5.489 0 0 0.059 2.538 2.828 2.75 0 0 6.237 0.285 10.052-0.035 0 0 2.035-0.087 2.369-2.397-0.003 0 0.337-1.899 0.043-5.615zM16.494 17.371l-2.375 1.37v-5.481l4.75 2.741z"></path>
</symbol>
<symbol id="icon-yandex" viewBox="0 0 32 32">
<path fill="#ed1f24" style="fill: var(--color1, #ed1f24)" d="M31.918 29.928c0 1.098-0.892 1.99-1.99 1.99h-27.857c-1.097 0-1.99-0.892-1.99-1.99v-27.857c0-1.097 0.892-1.99 1.99-1.99h27.857c1.098 0 1.99 0.892 1.99 1.99v27.857z"></path>
<path fill="#fff" style="fill: var(--color2, #fff)" d="M19.592 6.585h-2.853c-2.803 0-5.181 2.134-5.181 6.277 0 2.485 1.151 4.318 3.203 5.222l-3.829 6.929c-0.125 0.226 0 0.402 0.2 0.402h1.777c0.15 0 0.251-0.050 0.301-0.175l3.479-6.804h1.251v6.804c0 0.075 0.075 0.175 0.175 0.175h1.552c0.15 0 0.2-0.075 0.2-0.2v-18.378c-0-0.176-0.1-0.251-0.275-0.251zM17.94 16.829h-1.051c-1.652 0-3.253-1.205-3.253-4.218 0-3.139 1.502-4.419 3.028-4.419h1.276v8.637z"></path>
</symbol>
<symbol id="icon-close" viewBox="0 0 32 32">
<path fill="#bbcdd6" d="M17.88 16l5.733-5.72c0.242-0.242 0.392-0.577 0.392-0.947 0-0.739-0.599-1.339-1.339-1.339-0.37 0-0.704 0.15-0.947 0.392v0l-5.72 5.733-5.72-5.733c-0.242-0.242-0.577-0.392-0.947-0.392-0.739 0-1.339 0.599-1.339 1.339 0 0.37 0.15 0.704 0.392 0.947v0l5.733 5.72-5.733 5.72c-0.244 0.242-0.394 0.577-0.394 0.947s0.151 0.705 0.394 0.947l0 0c0.242 0.244 0.577 0.394 0.947 0.394s0.705-0.151 0.947-0.394l0-0 5.72-5.733 5.72 5.733c0.242 0.244 0.577 0.394 0.947 0.394s0.705-0.151 0.947-0.394l0-0c0.244-0.242 0.394-0.577 0.394-0.947s-0.151-0.705-0.394-0.947l-0-0z"></path>
</symbol>
<symbol id="icon-views" viewBox="0 0 32 32">
<path fill="" d="M16 7.040c-10.497 0-16 7.734-16 8.96s5.503 8.96 16 8.96c10.496 0 16-7.734 16-8.96s-5.504-8.96-16-8.96zM16 22.892c-3.927 0-7.111-3.086-7.111-6.892s3.184-6.892 7.111-6.892 7.111 3.086 7.111 6.892-3.184 6.892-7.111 6.892zM19.555 16c0 1.903-1.592 3.447-3.555 3.447s-3.555-1.543-3.555-3.447 1.592-3.446 3.555-3.446c1.061 0-0.651 2.731 0 3.446 0.553 0.607 3.555-0.874 3.555 0z"></path>
</symbol>
<symbol id="icon-chat" viewBox="0 0 32 32">
<path fill="" d="M28 0c2.209 0 4 1.791 4 4v0 25.586c-0 0.552-0.448 1-1 1-0.277 0-0.527-0.112-0.708-0.294l-5.706-5.706c-0.362-0.362-0.862-0.586-1.414-0.586h-19.172c-2.209 0-4-1.791-4-4v0-16c0-2.209 1.791-4 4-4v0h24z"></path>
</symbol>
<symbol id="icon-danger" viewBox="0 0 32 32">
<path fill="" d="M15.080 5.755l-11.66 20.195c-0.089 0.152-0.141 0.335-0.141 0.53 0 0.587 0.475 1.063 1.061 1.065h23.32c0.587-0.002 1.061-0.478 1.061-1.065 0-0.195-0.052-0.378-0.144-0.535l0.003 0.005-11.66-20.195c-0.188-0.318-0.529-0.529-0.92-0.529s-0.732 0.21-0.917 0.524l-0.003 0.005z"></path>
<path fill="white" d="M14.5 23c0-0.828 0.672-1.5 1.5-1.5s1.5 0.672 1.5 1.5c0 0.828-0.672 1.5-1.5 1.5v0c-0.018 0.001-0.040 0.001-0.061 0.001-0.795 0-1.44-0.645-1.44-1.44 0-0.022 0-0.043 0.001-0.064l-0 0.003zM15.045 20.67l-0.38-7.5h2.63l-0.365 7.5z"></path>
</symbol>
</svg>